HIERARCHY
ROOT hip
{
  OFFSET 0 0 0
  CHANNELS 6 Xposition Yposition Zposition Zrotation Yrotation Xrotation
  JOINT abdomen
  {
    OFFSET 0 20.6881 -0.73152
    CHANNELS 3 Zrotation Xrotation Yrotation
    JOINT chest
    {
      OFFSET 0 11.7043 -0.48768
      CHANNELS 3 Zrotation Xrotation Yrotation
      JOINT neck
      {
        OFFSET 0 22.1894 -2.19456
        CHANNELS 3 Zrotation Xrotation Yrotation
        JOINT head
        {
          OFFSET -0.24384 7.07133 1.2192
          CHANNELS 3 Zrotation Xrotation Yrotation
          JOINT leftEye
          {
            OFFSET 4.14528 8.04674 8.04672
            CHANNELS 3 Zrotation Xrotation Yrotation
            End Site
            {
              OFFSET 1 0 0
            }
          }
          JOINT rightEye
          {
            OFFSET -3.6576 8.04674 8.04672
            CHANNELS 3 Zrotation Xrotation Yrotation
            End Site
            {
              OFFSET 1 0 0
            }
          }
        }
      }
      JOINT rCollar
      {
        OFFSET -2.68224 19.2634 -4.8768
        CHANNELS 3 Zrotation Xrotation Yrotation
        JOINT rShldr
        {
          OFFSET -8.77824 -1.95073 1.46304
          CHANNELS 3 Zrotation Xrotation Yrotation
          JOINT rForeArm
          {
            OFFSET -28.1742 -1.7115 0.48768
            CHANNELS 3 Zrotation Xrotation Yrotation
            JOINT rHand
            {
              OFFSET -22.5879 0.773209 7.07136
              CHANNELS 3 Zrotation Xrotation Yrotation
              JOINT rThumb1
              {
                OFFSET -1.2192 -0.487915 3.41376
                CHANNELS 3 Zrotation Xrotation Yrotation
                JOINT rThumb2
                {
                  OFFSET -3.37035 -0.52449 3.41376
                  CHANNELS 3 Zrotation Xrotation Yrotation
                  End Site
                  {
                    OFFSET -1.78271 -1.18214 1.43049
                  }
                }
              }
              JOINT rIndex1
              {
                OFFSET -7.75947 0.938293 5.60832
                CHANNELS 3 Zrotation Xrotation Yrotation
                JOINT rIndex2
                {
                  OFFSET -2.54057 -0.884171 1.56538
                  CHANNELS 3 Zrotation Xrotation Yrotation
                  End Site
                  {
                    OFFSET -1.62519 -0.234802 1.16502
                  }
                }
              }
              JOINT rMid1
              {
                OFFSET -8.24714 1.18213 3.41376
                CHANNELS 3 Zrotation Xrotation Yrotation
                JOINT rMid2
                {
                  OFFSET -3.10165 -0.590103 1.0647
                  CHANNELS 3 Zrotation Xrotation Yrotation
                  End Site
                  {
                    OFFSET -2.48547 -0.328903 0.83742
                  }
                }
              }
              JOINT rRing1
              {
                OFFSET -8.82822 0.546677 1.51678
                CHANNELS 3 Zrotation Xrotation Yrotation
                JOINT rRing2
                {
                  OFFSET -2.60934 -0.819778 -0.0198488
                  CHANNELS 3 Zrotation Xrotation Yrotation
                  End Site
                  {
                    OFFSET -2.33842 -0.294052 0.168128
                  }
                }
              }
              JOINT rPinky1
              {
                OFFSET -8.27202 -0.0477905 -0.4584
                CHANNELS 3 Zrotation Xrotation Yrotation
                JOINT rPinky2
                {
                  OFFSET -1.82734 -0.647385 -0.700984
                  CHANNELS 3 Zrotation Xrotation Yrotation
                  End Site
                  {
                    OFFSET -1.69225 -0.51767 -0.607171
                  }
                }
              }
            }
          }
        }
      }
      JOINT lCollar
      {
        OFFSET 2.68224 19.2634 -4.8768
        CHANNELS 3 Zrotation Xrotation Yrotation
        JOINT lShldr
        {
          OFFSET 8.77824 -1.95073 1.46304
          CHANNELS 3 Zrotation Xrotation Yrotation
          JOINT lForeArm
          {
            OFFSET 28.1742 -1.7115 0.48768
            CHANNELS 3 Zrotation Xrotation Yrotation
            JOINT lHand
            {
              OFFSET 22.5879 0.773209 7.07136
              CHANNELS 3 Zrotation Xrotation Yrotation
              JOINT lThumb1
              {
                OFFSET 1.2192 -0.487915 3.41376
                CHANNELS 3 Zrotation Xrotation Yrotation
                JOINT lThumb2
                {
                  OFFSET 3.37035 -0.52449 3.41376
                  CHANNELS 3 Zrotation Xrotation Yrotation
                  End Site
                  {
                    OFFSET 1.78271 -1.18214 1.43049
                  }
                }
              }
              JOINT lIndex1
              {
                OFFSET 7.75947 0.938293 5.60832
                CHANNELS 3 Zrotation Xrotation Yrotation
                JOINT lIndex2
                {
                  OFFSET 2.54057 -0.884171 1.56538
                  CHANNELS 3 Zrotation Xrotation Yrotation
                  End Site
                  {
                    OFFSET 1.62519 -0.234802 1.16502
                  }
                }
              }
              JOINT lMid1
              {
                OFFSET 8.24714 1.18213 3.41376
                CHANNELS 3 Zrotation Xrotation Yrotation
                JOINT lMid2
                {
                  OFFSET 3.10165 -0.590103 1.0647
                  CHANNELS 3 Zrotation Xrotation Yrotation
                  End Site
                  {
                    OFFSET 2.48547 -0.328903 0.83742
                  }
                }
              }
              JOINT lRing1
              {
                OFFSET 8.82822 0.546677 1.51678
                CHANNELS 3 Zrotation Xrotation Yrotation
                JOINT lRing2
                {
                  OFFSET 2.60934 -0.819778 -0.0198488
                  CHANNELS 3 Zrotation Xrotation Yrotation
                  End Site
                  {
                    OFFSET 2.33842 -0.294052 0.168128
                  }
                }
              }
              JOINT lPinky1
              {
                OFFSET 8.27202 -0.0477905 -0.4584
                CHANNELS 3 Zrotation Xrotation Yrotation
                JOINT lPinky2
                {
                  OFFSET 1.82734 -0.647385 -0.700984
                  CHANNELS 3 Zrotation Xrotation Yrotation
                  End Site
                  {
                    OFFSET 1.69225 -0.51767 -0.607171
                  }
                }
              }
            }
          }
        }
      }
    }
  }
  JOINT rButtock
  {
    OFFSET -8.77824 4.35084 1.2192
    CHANNELS 3 Zrotation Xrotation Yrotation
    JOINT rThigh
    {
      OFFSET 0 -1.70687 -2.19456
      CHANNELS 3 Zrotation Xrotation Yrotation
      JOINT rShin
      {
        OFFSET 0 -36.8199 0.73152
        CHANNELS 3 Zrotation Xrotation Yrotation
        JOINT rFoot
        {
          OFFSET 0.73152 -45.1104 -5.12064
          CHANNELS 3 Zrotation Xrotation Yrotation
          End Site
          {
            OFFSET -1.1221 -3.69964 12.103
          }
        }
      }
    }
  }
  JOINT lButtock
  {
    OFFSET 8.77824 4.35084 1.2192
    CHANNELS 3 Zrotation Xrotation Yrotation
    JOINT lThigh
    {
      OFFSET 0 -1.70687 -2.19456
      CHANNELS 3 Zrotation Xrotation Yrotation
      JOINT lShin
      {
        OFFSET 0 -36.8199 0.73152
        CHANNELS 3 Zrotation Xrotation Yrotation
        JOINT lFoot
        {
          OFFSET -0.73152 -45.1104 -5.12064
          CHANNELS 3 Zrotation Xrotation Yrotation
          End Site
          {
            OFFSET 1.1221 -3.69964 12.103
          }
        }
      }
    }
  }
}
MOTION
Frames:	6
Frame Time:	0.00833333
17.8781 53.6338 60.9675 0.0 0.0 0.0 3.32093 0.00284074 0.0895556 0.915382 0.0205975 0.15833 -3.00773e-14 0.0 -7.45443e-16 -9.0329e-14 3.18055e-15 -2.0391e-15 -0.0 0.0 0.0 -0.0 0.0 0.0 -1.52086e-14 5.12492e-17 -2.98177e-16 -3.13024e-13 8.26199e-16 -7.7526e-15 -5.44814e-12 1.66025e-12 -6.99722e-14 -6.22109e-11 -1.45734e-12 -1.60936e-12 -1.46777e-10 4.38737e-13 -3.62583e-12 -2.53474e-10 7.60153e-13 -6.2649e-12 -1.46769e-10 4.42495e-13 -3.64492e-12 7.73091 5.47488 0.417314 -1.46777e-10 4.3842e-13 -3.62265e-12 2.90554 0.965183 0.102902 -1.46764e-10 4.39215e-13 -3.62981e-12 10.2786 0.731801 0.0259123 -1.46783e-10 4.40507e-13 -3.61947e-12 2.22167 -0.733487 -0.20892 -1.53059e-14 4.7949e-17 -5.96354e-16 -3.17704e-13 1.14301e-15 -9.74045e-15 -5.42319e-12 -1.60479e-12 -1.04958e-13 -6.22503e-11 1.79982e-12 -1.56165e-12 -1.46801e-10 4.18592e-13 -3.64173e-12 -2.53512e-10 7.25166e-13 -6.27046e-12 -1.46804e-10 4.19436e-13 -3.62583e-12 -7.73091 5.47488 -0.417314 -1.46801e-10 4.18839e-13 -3.63855e-12 -2.90554 0.965183 -0.102902 -1.46809e-10 4.18442e-13 -3.63617e-12 -10.2786 0.731801 -0.0259123 -1.46794e-10 4.19833e-13 -3.64492e-12 -2.22167 -0.733487 0.20892 -2.03217e-16 0.0 -3.88251e-19 2.98248 -9.63205 -0.345934 0.00977714 11.8585 0.256965 -0.535555 -2.24117 0.0140017 2.03217e-16 0.0 3.88251e-19 2.06571 -1.93654 -0.0170248 0.00843767 -2.07868 0.0692045 0.456038 4.00042 -0.132076
19.3781 83.2004 35.0484 171.365 -1.3839 73.8448 4.09056 8.76842 -2.11764 -0.701415 -4.16449 -0.249381 -0.764149 2.74189 0.73433 -2.88052 4.3018 3.6026 -0.0 0.0 0.0 -0.0 0.0 0.0 -3.28892e-14 6.14009e-14 -6.83427e-14 17.1361 6.80313 -8.30651 -7.67407 -4.62559 10.5036 0.0285628 -3.80866 -0.53127 2.85898e-10 -2.25016e-10 -4.08276e-10 5.00894e-10 -3.77326e-10 -7.03307e-10 2.85904e-10 -2.25013e-10 -4.08291e-10 7.73091 5.47488 0.417314 2.85897e-10 -2.2502e-10 -4.08274e-10 2.90554 0.965183 0.102902 2.85909e-10 -2.25015e-10 -4.08276e-10 10.2786 0.731801 0.0259123 2.85892e-10 -2.25013e-10 -4.08266e-10 2.22167 -0.733487 -0.20892 -3.29681e-14 6.13989e-14 -6.86137e-14 12.454 -9.38416 -13.0281 2.2425 -0.802066 -3.70278 -0.028815 3.7839 -0.527683 -3.6739e-10 1.26687e-10 1.21446e-11 -6.33368e-10 2.2151e-10 2.39881e-11 -3.67396e-10 1.26685e-10 1.21587e-11 -7.73091 5.47488 -0.417314 -3.67391e-10 1.26684e-10 1.21477e-11 -2.90554 0.965183 -0.102902 -3.67397e-10 1.26683e-10 1.21487e-11 -10.2786 0.731801 -0.0259123 -3.67383e-10 1.26685e-10 1.21406e-11 -2.22167 -0.733487 0.20892 -2.03217e-16 0.0 -3.88251e-19 5.7069 -1.05621 1.75147 0.0526643 18.2985 0.283032 -0.973987 6.59935 1.80578 2.03217e-16 0.0 3.88251e-19 1.93064 1.26114 -2.02364 -0.0673803 4.94105 -0.23343 0.555501 4.90651 4.17706
19.3433 83.1739 35.0127 171.359 -1.6951 73.9511 5.66129 17.9516 -4.62496 -2.48076 -8.59096 -0.689524 -1.64709 5.63934 1.51683 -6.49626 8.77988 7.4669 -0.0 0.0 0.0 -0.0 0.0 0.0 -5.19869e-14 1.2753e-13 -1.4355e-13 37.4132 13.477 -17.4958 -14.023 -9.05297 21.9003 -0.0189782 -7.75656 -1.09009 7.75726e-10 -5.14274e-10 -8.67751e-10 1.35489e-09 -8.63962e-10 -1.4947e-09 7.7573e-10 -5.14273e-10 -8.67761e-10 7.73091 5.47488 0.417314 7.75724e-10 -5.14281e-10 -8.6775e-10 2.90554 0.965183 0.102902 7.75734e-10 -5.14272e-10 -8.67747e-10 10.2786 0.731801 0.0259123 7.75721e-10 -5.1427e-10 -8.67735e-10 2.22167 -0.733487 -0.20892 -5.20431e-14 1.27529e-13 -1.43793e-13 20.898 -17.6178 -27.9009 4.50191 -1.63941 -7.62152 0.0171476 7.74129 -1.08743 -5.82772e-10 2.31358e-10 2.96732e-11 -1.00408e-09 4.0469e-10 5.71382e-11 -5.82779e-10 2.31353e-10 2.96853e-11 -7.73091 5.47488 -0.417314 -5.82774e-10 2.31351e-10 2.96762e-11 -2.90554 0.965183 -0.102902 -5.82777e-10 2.3135e-10 2.96756e-11 -10.2786 0.731801 -0.0259123 -5.82764e-10 2.31353e-10 2.96682e-11 -2.22167 -0.733487 0.20892 -2.03217e-16 0.0 -3.88251e-19 7.88882 8.01144 4.01049 0.0911264 25.1185 0.317935 -2.07307 15.9569 3.84625 2.03217e-16 0.0 3.88251e-19 2.0343 4.54755 -4.16125 -0.0672573 12.3368 -0.569955 0.516687 5.80983 8.7637
19.3212 83.1563 34.945 171.321 -1.9012 73.9274 7.84493 26.1376 -7.19706 -4.11708 -12.5326 -1.08877 -2.5051 8.22023 2.22332 -10.2882 12.6989 11.0509 -0.0 0.0 0.0 -0.0 0.0 0.0 -6.82506e-14 1.841e-13 -2.04432e-13 57.3876 18.6564 -26.2162 -18.1281 -12.011 32.1933 -0.129819 -11.422 -1.62243 1.15125e-09 -6.75924e-10 -1.21758e-09 2.00963e-09 -1.1335e-09 -2.09739e-09 1.15125e-09 -6.75925e-10 -1.21758e-09 7.73091 5.47488 0.417314 1.15125e-09 -6.75935e-10 -1.21758e-09 2.90554 0.965183 0.102902 1.15125e-09 -6.75923e-10 -1.21757e-09 10.2786 0.731801 0.0259123 1.15124e-09 -6.75919e-10 -1.21756e-09 2.22167 -0.733487 -0.20892 -6.82926e-14 1.84101e-13 -2.04648e-13 24.8713 -22.1936 -42.3064 6.41843 -2.36604 -11.1168 0.126169 11.3478 -1.6111 -8.08569e-10 3.79224e-10 4.37173e-11 -1.39308e-09 6.63081e-10 8.45051e-11 -8.08579e-10 3.79218e-10 4.37278e-11 -7.73091 5.47488 -0.417314 -8.08571e-10 3.79214e-10 4.37203e-11 -2.90554 0.965183 -0.102902 -8.08573e-10 3.79213e-10 4.37183e-11 -10.2786 0.731801 -0.0259123 -8.08561e-10 3.79216e-10 4.37116e-11 -2.22167 -0.733487 0.20892 -2.03217e-16 0.0 -3.88251e-19 9.23407 16.0057 6.17592 0.115949 31.1785 0.354387 -3.63809 24.1774 5.86994 2.03217e-16 0.0 3.88251e-19 2.33574 7.61617 -6.08935 0.0132186 18.9785 -0.884068 0.348672 6.59035 12.8349
19.2874 83.1556 34.8532 171.315 -1.9854 73.5189 9.96325 31.9817 -9.32062 -5.26391 -15.2642 -1.36185 -3.14973 10.0149 2.72038 -13.3668 15.4123 13.7076 -0.0 0.0 0.0 -0.0 0.0 0.0 -7.74297e-14 2.16774e-13 -2.29497e-13 72.3762 21.7818 -32.5414 -20.1474 -13.1983 39.0389 -0.260695 -14.3845 -2.06564 1.241e-09 -5.18557e-10 -1.29328e-09 2.16622e-09 -8.60292e-10 -2.22833e-09 1.24101e-09 -5.18558e-10 -1.29329e-09 7.73091 5.47488 0.417314 1.241e-09 -5.1857e-10 -1.29328e-09 2.90554 0.965183 0.102902 1.24101e-09 -5.18555e-10 -1.29327e-09 10.2786 0.731801 0.0259123 1.241e-09 -5.18552e-10 -1.29326e-09 2.22167 -0.733487 -0.20892 -7.74784e-14 2.16775e-13 -2.29696e-13 26.4298 -23.4443 -52.4779 7.6956 -2.85428 -13.5454 0.249511 14.0806 -2.02015 -1.06041e-09 6.3508e-10 4.90505e-11 -1.82782e-09 1.1095e-09 9.7414e-11 -1.06042e-09 6.35074e-10 4.90601e-11 -7.73091 5.47488 -0.417314 -1.06041e-09 6.35069e-10 4.90537e-11 -2.90554 0.965183 -0.102902 -1.06041e-09 6.35068e-10 4.90505e-11 -10.2786 0.731801 -0.0259123 -1.0604e-09 6.35071e-10 4.90442e-11 -2.22167 -0.733487 0.20892 -2.03217e-16 0.0 -3.88251e-19 9.87424 21.4159 7.80225 0.125586 35.3388 0.378775 -5.00762 29.6613 7.35631 2.03217e-16 0.0 3.88251e-19 2.68105 10.1779 -7.44637 0.122072 23.7376 -1.09535 0.134349 7.16975 15.5884
19.2442 83.1438 34.7596 171.289 -2.145 73.1263 11.1201 34.6762 -10.3218 -5.66457 -16.3098 -1.44123 -3.42061 10.7019 2.91168 -14.9514 16.621 14.9336 -0.0 0.0 0.0 -0.0 0.0 0.0 -8.1252e-14 2.15516e-13 -1.92717e-13 78.5884 23.2304 -34.8424 -20.508 -13.1219 40.7933 -0.360015 -16.421 -2.3767 8.91481e-10 1.43728e-10 -9.31725e-10 1.55669e-09 2.72974e-10 -1.60645e-09 8.91481e-10 1.43727e-10 -9.31729e-10 7.73091 5.47488 0.417314 8.9148e-10 1.43717e-10 -9.31722e-10 2.90554 0.965183 0.102902 8.91485e-10 1.4373e-10 -9.31716e-10 10.2786 0.731801 0.0259123 8.91478e-10 1.43733e-10 -9.31703e-10 2.22167 -0.733487 -0.20892 -8.13487e-14 2.15514e-13 -1.9291e-13 27.3542 -23.8903 -56.0548 8.17423 -3.03631 -14.4787 0.326902 15.5917 -2.251 -1.36791e-09 9.94315e-10 -1.22783e-11 -2.36091e-09 1.73833e-09 -3.87559e-12 -1.36792e-09 9.94312e-10 -1.22688e-11 -7.73091 5.47488 -0.417314 -1.36791e-09 9.94305e-10 -1.22744e-11 -2.90554 0.965183 -0.102902 -1.36791e-09 9.94304e-10 -1.22786e-11 -10.2786 0.731801 -0.0259123 -1.3679e-09 9.94306e-10 -1.22848e-11 -2.22167 -0.733487 0.20892 -2.03217e-16 0.0 -3.88251e-19 10.2363 23.2807 8.36605 0.123809 36.904 0.379111 -5.40252 31.4191 7.72889 2.03217e-16 0.0 3.88251e-19 2.88751 12.0296 -7.97559 0.183272 25.8671 -1.12597 -0.00262247 7.45452 16.4962
